<svg width="134" height="134" xmlns="http://www.w3.org/2000/svg" xmlns:xlink="http://www.w3.org/1999/xlink" overflow="hidden"><defs><clipPath id="clip0"><rect x="633" y="353" width="134" height="134"/></clipPath></defs><g clip-path="url(#clip0)" transform="translate(-633 -353)"><path d="M723.182 397.622 687.136 433.802C686.466 434.472 685.394 434.472 684.724 433.802L675.076 424.154C674.004 423.082 672.396 423.082 671.324 424.154 670.252 425.226 670.252 426.834 671.324 427.906L680.972 437.554C682.312 438.894 684.188 439.564 685.93 439.564 687.672 439.564 689.548 438.894 690.888 437.554L726.934 401.508C728.006 400.436 728.006 398.828 726.934 397.756 725.996 396.684 724.254 396.684 723.182 397.622Z" stroke="#000000" stroke-width="5.58333"/><path d="M699.196 362.246C667.706 362.246 642.246 387.706 642.246 419.196 642.246 450.686 667.84 476.146 699.196 476.146 730.552 476.146 756.146 450.552 756.146 419.196 756.146 387.84 730.552 362.246 699.196 362.246ZM699.196 470.786C670.788 470.786 647.606 447.604 647.606 419.196 647.606 390.788 670.788 367.606 699.196 367.606 727.604 367.606 750.786 390.788 750.786 419.196 750.786 447.604 727.604 470.786 699.196 470.786Z" stroke="#000000" stroke-width="5.58333"/></g></svg>