<svg width="1939" height="2049" xmlns="http://www.w3.org/2000/svg" xmlns:xlink="http://www.w3.org/1999/xlink" overflow="hidden"><defs><clipPath id="clip0"><rect x="1244" y="223" width="1939" height="2049"/></clipPath><clipPath id="clip1"><rect x="1320" y="357" width="1760" height="1761"/></clipPath><clipPath id="clip2"><rect x="1320" y="357" width="1760" height="1761"/></clipPath><clipPath id="clip3"><rect x="1320" y="357" width="1760" height="1761"/></clipPath></defs><g clip-path="url(#clip0)" transform="translate(-1244 -223)"><g clip-path="url(#clip1)"><g clip-path="url(#clip2)"><g clip-path="url(#clip3)"><path d="M2954.31 763.023 2954.31 2118 1484.28 2118 1484.28 358.007 2549.29 358.007 2737.94 546.653Z" fill="#B12A27"/><path d="M1445.69 475.889 2150.71 475.889 2150.71 791.341 1445.69 791.341Z" fill="#F2F2F2"/><path d="M1698.58 579.303C1695.47 571.788 1691.32 565.051 1685.62 559.351 1679.92 553.652 1672.92 548.987 1664.89 545.876 1656.6 542.508 1647.27 540.954 1636.91 540.954L1559.43 540.954 1559.43 740.999 1598.55 740.999 1598.55 665.591 1636.91 665.591C1647.27 665.591 1656.6 664.037 1664.89 660.668 1672.92 657.557 1679.92 652.896 1685.62 647.193 1691.33 641.494 1695.47 635.014 1698.58 627.242 1701.43 619.728 1702.99 611.694 1702.99 603.403 1702.98 594.85 1701.43 586.817 1698.58 579.303ZM1656.34 623.093C1651.16 628.016 1643.9 630.607 1635.09 630.607L1598.55 630.607 1598.55 575.673 1635.09 575.673C1643.9 575.673 1651.16 578.265 1656.34 583.445 1661.26 588.367 1663.85 595.105 1663.85 603.396 1663.86 611.433 1661.26 618.17 1656.34 623.093Z" fill="#B12A27"/><path d="M1885.67 618.428C1885.41 611.433 1885.15 605.215 1884.37 599.512 1883.6 593.809 1882.3 588.629 1880.48 583.706 1878.67 579.041 1876.34 574.377 1873.23 570.231 1866.23 560.125 1857.68 552.61 1848.09 547.946 1838.24 543.281 1826.58 540.95 1812.85 540.95L1740.82 540.95 1740.82 740.996 1812.85 740.996C1826.58 740.996 1838.24 738.665 1848.09 734 1857.68 729.336 1866.23 721.821 1873.23 711.715 1876.34 707.57 1878.67 702.905 1880.48 698.24 1882.3 693.318 1883.6 688.134 1884.37 682.435 1885.15 676.735 1885.41 670.513 1885.67 663.518 1885.93 656.78 1885.93 649.266 1885.93 640.975 1885.93 632.684 1885.93 625.166 1885.67 618.428ZM1846.54 661.187C1846.54 667.148 1846.02 671.813 1845.5 675.958 1844.98 679.846 1844.21 683.473 1843.17 686.065 1842.14 688.914 1840.58 691.506 1838.77 693.837 1832.29 702.128 1822.44 706.016 1809.49 706.016L1779.69 706.016 1779.69 575.673 1809.49 575.673C1822.44 575.673 1832.29 579.818 1838.77 588.11 1840.58 590.44 1842.14 592.774 1843.17 595.624 1844.21 598.474 1844.99 601.842 1845.5 605.988 1846.02 609.876 1846.54 614.798 1846.54 620.498 1846.8 626.2 1846.8 633.196 1846.8 640.968 1846.8 648.747 1846.8 655.484 1846.54 661.187Z" fill="#B12A27"/><path d="M2052.81 575.673 2052.81 540.95 1920.91 540.95 1920.91 740.996 1960.04 740.996 1960.04 659.891 2039.07 659.891 2039.07 624.908 1960.04 624.908 1960.04 575.673 2052.81 575.673Z" fill="#B12A27"/><path d="M1698.58 579.303C1695.47 571.788 1691.32 565.051 1685.62 559.351 1679.92 553.652 1672.92 548.987 1664.89 545.876 1656.6 542.508 1647.27 540.954 1636.91 540.954L1559.43 540.954 1559.43 740.999 1598.55 740.999 1598.55 665.591 1636.91 665.591C1647.27 665.591 1656.6 664.037 1664.89 660.668 1672.92 657.557 1679.92 652.896 1685.62 647.193 1691.33 641.494 1695.47 635.014 1698.58 627.242 1701.43 619.728 1702.99 611.694 1702.99 603.403 1702.98 594.85 1701.43 586.817 1698.58 579.303ZM1656.34 623.093C1651.16 628.016 1643.9 630.607 1635.09 630.607L1598.55 630.607 1598.55 575.673 1635.09 575.673C1643.9 575.673 1651.16 578.265 1656.34 583.445 1661.26 588.367 1663.85 595.105 1663.85 603.396 1663.86 611.433 1661.26 618.17 1656.34 623.093Z" fill="#B12A27"/><path d="M2954.31 763.023 2954.31 2118 1484.28 2118 1484.28 1800.31 2171.49 1113.11 2212.17 1072.42 2234.71 1049.88 2272.29 1012.3 2316.86 967.733 2737.94 546.653Z" fill="#040000" fill-opacity="0.08"/><path d="M2954.31 763.061 2549.25 763.061 2549.25 358Z" fill="#771B1B"/><path d="M2744.42 1632.14C2735.86 1617.11 2724.21 1602.86 2709.7 1589.9 2697.78 1579.02 2683.78 1568.91 2667.97 1559.58 2604.23 1522.01 2513.28 1503.87 2389.67 1503.87L2377.23 1503.87C2370.5 1497.65 2363.5 1491.43 2356.24 1484.95 2309.34 1442.72 2272.03 1396.85 2243.01 1345.8 2300.01 1220.12 2327.22 1108.18 2323.85 1012.82 2323.33 996.756 2321 981.727 2316.86 967.733 2310.64 945.19 2300.28 925.235 2285.76 908.911 2285.5 908.653 2285.5 908.653 2285.24 908.392 2262.18 882.48 2230.05 867.709 2197.4 867.709 2164.49 867.709 2134.17 881.961 2112.14 908.134 2090.38 934.046 2078.72 969.548 2078.2 1011.27 2077.42 1075.01 2082.6 1135.39 2093.49 1191.1 2094.52 1195.51 2095.3 1199.91 2096.34 1204.31 2107.22 1254.84 2123.29 1302.78 2144.02 1347.35 2119.66 1396.84 2095.04 1439.6 2077.94 1468.62 2064.98 1490.65 2050.73 1513.71 2035.96 1536.77 1969.36 1548.69 1912.87 1563.2 1863.64 1581.34 1797.05 1605.44 1743.67 1636.54 1705.31 1673.59 1680.44 1697.43 1663.59 1722.83 1655.3 1749.26 1646.49 1776.47 1647.01 1803.67 1656.85 1828.03 1665.92 1850.58 1682.25 1869.49 1704.02 1882.45 1709.2 1885.56 1714.64 1888.15 1720.34 1890.48 1736.93 1897.22 1755.06 1900.85 1773.98 1900.85 1817.77 1900.85 1862.86 1881.93 1900.95 1847.98 1971.95 1784.5 2045.29 1682.4 2088.56 1617.88 2124.06 1612.44 2162.67 1607.77 2206.2 1603.11 2257.51 1597.92 2302.86 1594.82 2344.06 1593.26 2356.76 1604.66 2368.94 1615.54 2380.6 1625.91 2445.38 1683.69 2494.61 1725.41 2539.19 1754.69 2539.19 1754.95 2539.44 1754.95 2539.7 1754.95 2557.32 1766.61 2574.17 1776.2 2591.01 1783.97 2609.93 1792.78 2629.1 1797.45 2648.8 1797.45 2673.67 1797.45 2696.99 1789.94 2716.43 1776.2 2736.12 1761.95 2750.37 1741.48 2756.85 1718.42 2764.37 1690.7 2759.97 1659.86 2744.42 1632.14ZM2171.49 1113.11C2167.86 1080.97 2166.3 1047.55 2166.82 1012.3 2167.34 978.878 2179.52 956.331 2197.4 956.331 2210.87 956.331 2225.12 968.51 2231.6 991.83 2233.42 998.825 2234.71 1006.86 2234.97 1015.93 2235.49 1026.81 2235.23 1038.21 2234.71 1049.87 2233.16 1082.78 2227.46 1117.76 2217.61 1155.34 2211.65 1179.44 2203.88 1204.57 2194.29 1230.74 2183.41 1193.95 2175.63 1154.82 2171.49 1113.11ZM1739.26 1795.13C1734.85 1784.24 1739.78 1763.25 1766.73 1737.34 1807.93 1697.95 1872.45 1666.86 1962.37 1643.28 1945.27 1666.6 1928.43 1687.85 1912.1 1707.28 1887.23 1737.34 1863.39 1762.73 1841.88 1781.91 1823.48 1798.49 1803.27 1808.86 1784.09 1811.45 1780.72 1811.97 1777.36 1812.23 1773.99 1812.23 1757.14 1812.23 1743.41 1805.49 1739.26 1795.13ZM2153.35 1519.68 2155.16 1516.83 2152.31 1517.34C2152.83 1516.05 2153.61 1514.75 2154.38 1513.72 2165.27 1495.32 2179 1471.74 2193.77 1444.53L2195.07 1447.38 2198.44 1440.39C2209.32 1455.93 2221.24 1471.22 2233.68 1485.99 2239.64 1492.99 2245.86 1499.72 2252.07 1506.46L2247.93 1506.72 2251.56 1510.09C2240.93 1510.87 2229.79 1511.9 2218.65 1512.94 2211.65 1513.71 2204.39 1514.23 2197.14 1515.01 2182.11 1516.56 2167.34 1518.12 2153.35 1519.68ZM2589.46 1681.37C2558.62 1661.68 2524.16 1633.95 2481.66 1596.89 2542.04 1603.11 2589.46 1616.33 2623.15 1636.02 2637.92 1644.57 2649.06 1653.38 2656.57 1661.93 2669.01 1675.15 2673.42 1687.07 2671.08 1695.1 2669.01 1703.13 2659.94 1708.58 2648.8 1708.58 2642.32 1708.58 2635.58 1707.02 2628.58 1703.65 2616.66 1697.95 2604.23 1690.96 2591.01 1682.41 2590.49 1682.41 2589.98 1681.89 2589.46 1681.37Z" fill="#F2F2F2"/></g></g></g></g></svg>