<svg width="144" height="144" xmlns="http://www.w3.org/2000/svg" xmlns:xlink="http://www.w3.org/1999/xlink" overflow="hidden"><defs><clipPath id="clip0"><rect x="885" y="296" width="144" height="144"/></clipPath></defs><g clip-path="url(#clip0)" transform="translate(-885 -296)"><path d="M957 416C930.54 416 909 394.46 909 368 909 341.54 930.54 320 957 320 983.46 320 1005 341.54 1005 368 1005 394.46 983.46 416 957 416M957 308C923.82 308 897 334.82 897 368 897 401.18 923.82 428 957 428 990.18 428 1017 401.18 1017 368 1017 334.82 990.18 308 957 308M972.54 344 957 359.54 941.46 344 933 352.46 948.54 368 933 383.54 941.46 392 957 376.46 972.54 392 981 383.54 965.46 368 981 352.46 972.54 344Z"/></g></svg>